<?xml version="1.0" encoding="utf-8"?>
<!-- Generator: Adobe Illustrator 16.0.0, SVG Export Plug-In . SVG Version: 6.00 Build 0)  -->
<!DOCTYPE svg PUBLIC "-//W3C//DTD SVG 1.1//EN" "http://www.w3.org/Graphics/SVG/1.1/DTD/svg11.dtd">
<svg version="1.1" id="Layer_1" xmlns="http://www.w3.org/2000/svg" xmlns:xlink="http://www.w3.org/1999/xlink" x="0px" y="0px"
	 width="306.809px" height="72.408px" viewBox="-114.872 61.696 306.809 72.408"
	 enable-background="new -114.872 61.696 306.809 72.408" xml:space="preserve">
<g id="Layer_1_1_">
	<g>
		<g>
			<g>
				<defs>
					<rect id="SVGID_1_" x="-220" y="38" width="275.668" height="205.604"/>
				</defs>
				<clipPath id="SVGID_2_">
					<use xlink:href="#SVGID_1_"  overflow="visible"/>
				</clipPath>
				<path clip-path="url(#SVGID_2_)" fill="#231F20" d="M-46.716,67.922h-44.091c-3.277,0-5.934,2.831-5.934,6.324v31.059
					c0,3.492,2.657,6.323,5.934,6.323h22.298l23.39,14l-1.555-14c3.258-0.023,5.894-2.845,5.894-6.322V74.246
					C-40.781,70.753-43.438,67.922-46.716,67.922"/>
			</g>
			<g>
				<defs>
					<rect id="SVGID_3_" x="-220" y="38" width="275.668" height="205.604"/>
				</defs>
				<clipPath id="SVGID_4_">
					<use xlink:href="#SVGID_3_"  overflow="visible"/>
				</clipPath>
				<path clip-path="url(#SVGID_4_)" fill="#F4F3F3" d="M-67.683,108.26h-23.124c-1.529,0-2.774-1.325-2.774-2.956V74.246
					c0-1.63,1.245-2.956,2.774-2.956h44.091c1.53,0,2.774,1.326,2.774,2.956v31.059c0,1.618-1.235,2.943-2.755,2.954l-3.531,0.026
					l1.24,11.163L-67.683,108.26z"/>
			</g>
			<g>
				<defs>
					<rect id="SVGID_5_" x="-220" y="38" width="275.668" height="205.604"/>
				</defs>
				<clipPath id="SVGID_6_">
					<use xlink:href="#SVGID_5_"  overflow="visible"/>
				</clipPath>
				<path clip-path="url(#SVGID_6_)" fill="#F4F3F3" d="M-68.761,94.86c-2.018,0-3.743-1.356-4.419-3.255h-9.014
					c0.365,3.178,1.704,6.119,3.863,8.419c2.556,2.723,5.954,4.223,9.57,4.223c3.615,0,7.013-1.5,9.569-4.223
					c2.159-2.3,3.499-5.241,3.863-8.419h-9.013C-65.019,93.504-66.744,94.86-68.761,94.86"/>
			</g>
			<g>
				<defs>
					<rect id="SVGID_7_" x="-220" y="38" width="275.668" height="205.604"/>
				</defs>
				<clipPath id="SVGID_8_">
					<use xlink:href="#SVGID_7_"  overflow="visible"/>
				</clipPath>
				<path clip-path="url(#SVGID_8_)" fill="#F4F3F3" d="M-65.672,89.826c0-1.815-1.386-3.292-3.089-3.292
					c-1.705,0-3.09,1.477-3.09,3.292s1.385,3.293,3.09,3.293C-67.058,93.119-65.672,91.641-65.672,89.826"/>
			</g>
			<g>
				<defs>
					<rect id="SVGID_9_" x="-220" y="38" width="275.668" height="205.604"/>
				</defs>
				<clipPath id="SVGID_10_">
					<use xlink:href="#SVGID_9_"  overflow="visible"/>
				</clipPath>
				<path clip-path="url(#SVGID_10_)" fill="#231F20" d="M-70.4,72.921c-6.734,0-11.765,9.773-11.765,18.513
					c0,4.299,1.183,7.935,3.422,10.514c2.112,2.433,5.075,3.771,8.343,3.771s6.23-1.338,8.341-3.771
					c2.24-2.579,3.423-6.214,3.423-10.514C-58.635,82.695-63.667,72.921-70.4,72.921 M-70.4,103.969
					c-0.563,0-1.11-0.043-1.637-0.127c0.543-0.905-0.288-2.616-2.577-4.396c-1.736-1.352-3.819-2.36-5.023-2.422
					c-0.575-1.64-0.887-3.521-0.887-5.589c0-1.639,0.199-3.334,0.564-4.989l0.014,0.01c0.528,0.287,1.35-0.298,2.047-1.75
					c0.696-1.452,1.005-3.22,0.477-3.508c-0.217-0.118-0.541,0.035-0.895,0.351c1.836-3.952,4.669-6.877,7.918-6.877
					c5.702,0,10.124,9.011,10.124,16.763C-60.276,98.932-64.345,103.969-70.4,103.969"/>
			</g>
			<g>
				<defs>
					<rect id="SVGID_11_" x="-220" y="38" width="275.668" height="205.604"/>
				</defs>
				<clipPath id="SVGID_12_">
					<use xlink:href="#SVGID_11_"  overflow="visible"/>
				</clipPath>
				<path clip-path="url(#SVGID_12_)" fill="#231F20" d="M-66.91,87.087c-2.391-0.835-5.281,1.581-6.182,4.507
					c-0.899,2.926,0.531,5.253,2.924,6.088c2.391,0.836,4.838-0.139,5.738-3.064C-63.53,91.692-64.518,87.922-66.91,87.087"/>
			</g>
			<g>
				<defs>
					<rect id="SVGID_13_" x="-220" y="38" width="275.668" height="205.604"/>
				</defs>
				<clipPath id="SVGID_14_">
					<use xlink:href="#SVGID_13_"  overflow="visible"/>
				</clipPath>
				<g id="XMLID_1_" clip-path="url(#SVGID_14_)">
					<g>
						<path fill="#ED1C24" d="M-65.162,81.508c0.616,0.937,0.571,1.759,0.085,2.121c-0.486,0.363-1.229,0.129-1.845-0.808
							c-0.616-0.939-0.875-2.226-0.388-2.587C-66.823,79.871-65.778,80.569-65.162,81.508z"/>
					</g>
				</g>
			</g>
		</g>
		<g>
			<path fill="#ED1C24" d="M-11.843,84.211c0,4.108-2.765,6.5-7.583,6.5h-4.407v5.486h-3.23V77.997h7.637
				C-14.608,77.997-11.843,80.259-11.843,84.211z M-14.937,84.289c0-2.393-1.669-3.536-4.626-3.536h-4.271v7.202h4.271
				C-16.606,87.955-14.937,86.759-14.937,84.289z"/>
			<path fill="#ED1C24" d="M4.992,89.281c0,4.16-3.093,7.02-7.583,7.02c-4.517,0-7.61-2.86-7.61-7.02
				c0-4.187,3.093-7.021,7.61-7.021C1.899,82.261,4.992,85.095,4.992,89.281z M-7.053,89.307c0,2.678,1.834,4.498,4.462,4.498
				c2.6,0,4.435-1.82,4.435-4.498c0-2.652-1.834-4.472-4.435-4.472C-5.218,84.835-7.053,86.655-7.053,89.307z"/>
			<path fill="#ED1C24" d="M14.025,89.853l-2.463,2.47v3.874H8.414V76.904h3.148v11.648l6.433-6.188h3.613l-5.393,5.356l5.804,8.477
				h-3.723L14.025,89.853z"/>
			<path fill="#ED1C24" d="M34.557,91.881l1.834,1.612c-1.643,1.898-3.778,2.808-6.296,2.808c-4.49,0-7.583-2.834-7.583-7.02
				c0-4.057,2.82-6.969,7.309-7.021c3.969-0.052,6.625,2.262,6.871,6.032l-10.594,3.016c0.712,1.612,2.217,2.6,4.188,2.6
				C31.901,93.909,33.379,93.207,34.557,91.881z M25.66,89.125v0.026l7.994-2.262c-0.685-1.56-1.917-2.21-3.641-2.21
				C27.357,84.679,25.66,86.239,25.66,89.125z"/>
			<path d="M52.897,82.365v12.48c0,3.978-2.984,6.526-7.555,6.5c-2.655-0.026-5.092-1.248-6.187-3.225l1.697-1.872
				c0.958,1.508,2.491,2.548,4.353,2.601c2.765,0.026,4.571-1.534,4.571-3.926v-1.742c-0.985,1.508-2.628,2.34-4.818,2.34
				c-3.942,0-6.57-2.704-6.57-6.683c0-3.874,2.601-6.552,6.46-6.578c2.245-0.026,3.915,0.832,4.927,2.34v-2.236H52.897z
				 M49.776,88.917c-0.027-2.496-1.725-4.238-4.188-4.238c-2.491,0-4.216,1.768-4.243,4.238c0.027,2.496,1.725,4.264,4.243,4.264
				C48.052,93.181,49.749,91.413,49.776,88.917z"/>
			<path d="M71.101,89.281c0,4.16-3.093,7.02-7.583,7.02c-4.517,0-7.61-2.86-7.61-7.02c0-4.187,3.093-7.021,7.61-7.021
				C68.008,82.261,71.101,85.095,71.101,89.281z M59.056,89.307c0,2.678,1.834,4.498,4.462,4.498c2.601,0,4.435-1.82,4.435-4.498
				c0-2.652-1.834-4.472-4.435-4.472C60.891,84.835,59.056,86.655,59.056,89.307z"/>
			<path d="M87.69,80.753c-1.889,0-3.121,0.676-3.121,1.898c0,3.978,10.348,1.846,10.32,8.398c0,3.25-3.011,5.252-7.227,5.252
				c-3.011,0-5.858-1.17-7.829-2.886l1.396-2.652c1.971,1.716,4.435,2.652,6.488,2.652c2.245,0,3.586-0.806,3.586-2.21
				c0-4.056-10.348-1.794-10.348-8.269c0-3.12,2.82-5.07,6.98-5.07c2.491,0,4.927,0.754,6.707,1.872l-1.341,2.704
				C91.221,81.247,89.141,80.753,87.69,80.753z"/>
			<path d="M112.299,89.281c0,4.16-3.093,7.02-7.583,7.02c-4.517,0-7.61-2.86-7.61-7.02c0-4.187,3.093-7.021,7.61-7.021
				C109.206,82.261,112.299,85.095,112.299,89.281z M100.254,89.307c0,2.678,1.834,4.498,4.462,4.498
				c2.601,0,4.435-1.82,4.435-4.498c0-2.652-1.834-4.472-4.435-4.472C102.089,84.835,100.254,86.655,100.254,89.307z"/>
			<path fill="#ED1C24" d="M121.689,84.887c-2.518,0-4.325,1.794-4.325,4.42c0,2.626,1.807,4.42,4.325,4.42
				c1.834,0,3.312-0.572,4.298-1.664l1.752,1.664c-1.314,1.638-3.422,2.574-6.187,2.574c-4.325,0-7.336-2.834-7.336-6.994
				c0-4.186,3.011-7.046,7.336-7.046c2.628,0,4.681,0.806,6.022,2.262l-1.725,1.924C124.837,85.459,123.441,84.861,121.689,84.887z"
				/>
			<path fill="#ED1C24" d="M134.418,78.413c0,1.04-0.794,1.794-1.834,1.794s-1.834-0.754-1.834-1.794c0-1.066,0.794-1.82,1.834-1.82
				S134.418,77.347,134.418,78.413z M134.144,82.365v13.833h-3.121V82.365H134.144z"/>
			<path fill="#ED1C24" d="M152.622,82.365v13.833h-3.121v-2.34c-1.068,1.586-2.792,2.47-5.092,2.47c-4.188,0-6.98-2.886-6.98-7.098
				c0-4.134,2.765-6.968,6.871-6.994c2.354-0.026,4.133,0.858,5.201,2.47v-2.34H152.622z M149.501,89.827v-1.014
				c-0.247-2.392-1.971-4.03-4.435-4.03c-2.628,0-4.462,1.898-4.49,4.55c0.027,2.626,1.834,4.498,4.49,4.498
				C147.53,93.831,149.254,92.193,149.501,89.827z"/>
			<path fill="#ED1C24" d="M161.491,93.597c0.438,0,0.903-0.156,1.451-0.442l0.438,2.444c-0.931,0.494-1.861,0.728-2.737,0.728
				c-2.026,0-3.613-1.378-3.613-4.03V76.904h3.121v15.081C160.149,93.103,160.669,93.597,161.491,93.597z"/>
		</g>
	</g>
</g>
<g id="Layer_2">
</g>
</svg>
